# Blender v2.93.0 OBJ File: 'KiricoMap2.blend'
# www.blender.org
mtllib base.mtl
o Ground_Plane
v -48.707504 0.000000 -48.707497
v -48.707497 0.000000 48.707504
v 48.707497 0.000000 -48.707504
v 48.707504 0.000000 48.707497
vt -2.193063 -2.202006
vt 3.170757 -2.202006
vt 3.170757 3.161813
vt -2.193063 3.161813
vn 0.0000 1.0000 0.0000
usemtl Ground
s off
f 1/1/1 2/2/1 4/3/1 3/4/1
o Sky_Cube.020
v 58.027214 59.417686 -44.592541
v 58.027214 -6.834023 -44.592541
v 58.027214 59.417686 51.604488
v 58.027214 -6.834023 51.604488
v -46.090469 59.417686 -44.592541
v -46.090469 -6.834023 -44.592541
v -46.090469 59.417686 51.604488
v -46.090469 -6.834023 51.604488
vt 1.000000 1.000000
vt 0.000000 1.000000
vt 0.000000 0.000000
vt 1.000000 0.000000
vt 1.000000 1.000000
vt 0.000000 1.000000
vt 0.000000 0.000000
vt 1.000000 0.000000
vt 1.000000 1.000000
vt 1.000000 0.000000
vt 0.000000 1.000000
vt 0.000000 0.000000
vn 1.0000 0.0000 0.0000
vn 0.0000 0.0000 1.0000
vn -1.0000 0.0000 0.0000
vn 0.0000 0.0000 -1.0000
usemtl Sky
s off
f 5/5/2 7/6/2 8/7/2 6/8/2
f 7/9/3 11/10/3 12/11/3 8/12/3
f 11/10/4 9/13/4 10/14/4 12/11/4
f 9/15/5 5/5/5 6/8/5 10/16/5
o Walls_Cube.001
v -43.657589 0.000000 -43.599621
v -43.657589 2.520997 -43.599621
v 43.636993 0.000000 -43.599628
v 43.636993 2.520997 -43.599628
v -43.657589 0.000000 -42.879704
v -43.657589 2.520997 -42.879704
v 43.636993 0.000000 -42.879711
v 43.636993 2.520997 -42.879711
v 42.800556 0.000000 -43.599628
v -42.821163 0.000000 -43.599621
v -42.821156 2.520997 -43.599621
v 42.800571 2.520997 -43.599628
v -42.821156 0.000000 -42.879704
v 42.800571 0.000000 -42.879711
v 42.800556 2.520997 -42.879711
v -42.821163 2.520997 -42.879704
v 43.637001 2.520997 47.251873
v 43.637001 0.520997 47.251873
v 42.800579 0.520997 47.251873
v -42.821156 2.520997 47.251881
v -43.657581 2.520997 47.251881
v -43.657581 0.000000 47.251881
v -42.821148 0.000000 47.251881
v 42.800564 2.520997 47.251873
v 42.800564 2.520997 46.242668
v 43.637001 2.520997 46.242668
v 43.637001 0.000000 46.242668
v 42.800579 0.000000 46.242668
v -43.657581 0.000000 46.219090
v -43.657581 2.520997 46.219090
v -42.821148 0.000000 46.219090
v -42.821156 2.520997 46.219090
vt 0.182329 0.840218
vt 0.182329 0.848705
vt 0.183479 0.848705
vt 0.183479 0.840218
vt 0.061078 0.840218
vt 0.061078 0.848705
vt 0.062067 0.848705
vt 0.062067 0.840218
vt 0.184536 0.991407
vt 0.184536 0.988591
vt 0.185922 0.988591
vt 0.185922 0.991407
vt 0.062067 0.840218
vt 0.062067 0.848705
vt 0.061078 0.848705
vt 0.061078 0.840218
vt 0.061078 0.700331
vt 0.062067 0.700331
vt 0.062067 0.697515
vt 0.061078 0.697515
vt 0.062067 0.700331
vt 0.061078 0.700331
vt 0.061078 0.697515
vt 0.062067 0.697515
vt 0.062067 0.991407
vt 0.061078 0.991407
vt 0.061078 0.988591
vt 0.062067 0.988591
vt 0.061078 0.991407
vt 0.062067 0.991407
vt 0.062067 0.988591
vt 0.061078 0.988591
vt 0.184503 0.848705
vt 0.184503 0.840218
vt 0.185922 0.840218
vt 0.185922 0.848705
vt 0.182329 0.840218
vt 0.182329 0.848705
vt 0.064671 0.848705
vt 0.064671 0.840218
vt 0.063522 0.840218
vt 0.063522 0.848705
vt 0.064671 0.848705
vt 0.064671 0.840218
vt 0.064671 0.840218
vt 0.064671 0.848705
vt 0.063522 0.848705
vt 0.063522 0.840218
vt 0.183479 0.841972
vt 0.183479 0.848705
vt 0.182329 0.848705
vt 0.182329 0.841972
vt 0.184536 0.988591
vt 0.184536 0.991407
vt 0.185922 0.991407
vt 0.185922 0.988591
vt 0.184503 0.697515
vt 0.184503 0.700331
vt 0.185922 0.700331
vt 0.185922 0.697515
vt 0.184503 0.700331
vt 0.184503 0.697515
vt 0.185922 0.697515
vt 0.185922 0.700331
vt 0.184536 0.840218
vt 0.184536 0.848705
vt 0.185922 0.848705
vt 0.185922 0.841972
vt 0.062067 0.848705
vt 0.062067 0.840218
vt 0.184536 0.840218
vt 0.184536 0.848705
vt 0.062067 0.840218
vt 0.062067 0.848705
vt 0.184503 0.848705
vt 0.184503 0.840218
vt 0.064671 0.840218
vt 0.064671 0.848705
vt 0.182329 0.848705
vt 0.182329 0.840218
vn 0.0000 0.0000 -1.0000
vn 1.0000 0.0000 0.0000
vn 0.0000 1.0000 0.0000
vn -1.0000 0.0000 0.0000
vn 0.0000 -1.0000 0.0000
vn 0.0000 0.0000 1.0000
vn 0.0000 -0.8886 0.4587
vn 0.0029 -0.9690 0.2472
vn 0.0003 0.0000 -1.0000
usemtl Brick
s off
f 21/17/6 24/18/6 16/19/6 15/20/6
f 15/21/7 16/22/7 20/23/7 19/24/7
f 38/25/8 37/26/8 36/27/8 29/28/8
f 17/29/9 18/30/9 14/31/9 13/32/9
f 22/33/10 25/34/10 17/35/10 13/36/10
f 28/37/8 23/38/8 14/39/8 18/40/8
f 20/41/8 16/42/8 24/43/8 27/44/8
f 27/44/8 24/43/8 23/38/8 28/37/8
f 15/45/10 19/46/10 26/47/10 21/48/10
f 21/48/10 26/47/10 25/34/10 22/33/10
f 42/49/9 41/50/9 34/51/9 33/52/9
f 26/53/11 27/54/11 28/55/11 25/56/11
f 13/57/6 14/58/6 23/59/6 22/60/6
f 22/60/6 23/59/6 24/18/6 21/17/6
f 35/61/11 32/62/11 33/63/11 34/64/11
f 30/65/11 29/66/11 36/67/11 31/68/11
f 40/69/12 39/70/12 30/71/12 31/72/12
f 41/73/10 43/74/10 35/75/10 34/76/10
f 44/77/8 42/78/8 33/79/8 32/80/8
f 39/81/7 38/82/7 29/83/7 30/84/7
f 27/85/9 26/86/9 40/87/9 37/88/9
f 19/24/7 20/23/7 38/82/7 39/81/7
f 26/47/10 19/46/10 39/70/10 40/69/10
f 20/41/8 27/44/8 37/26/8 38/25/8
f 28/37/8 18/40/8 42/78/8 44/77/8
f 25/89/7 28/90/7 44/91/7 43/92/7
f 17/35/10 25/34/10 43/74/10 41/73/10
f 18/30/9 17/29/9 41/50/9 42/49/9
f 35/75/13 43/74/13 40/69/13 31/72/13
f 43/93/14 44/94/14 37/95/14 40/96/14
f 44/77/8 32/80/8 36/27/8 37/26/8
f 32/62/11 35/61/11 31/68/11 36/67/11
