# Blender v2.93.0 OBJ File: 'KiricoMap_EliosVersion.blend'
# www.blender.org
mtllib door.mtl
o Door_Cube.044
v 2.967326 -0.049634 8.616110
v 4.003423 -0.049634 8.616110
v 2.967326 1.950366 8.616110
v 4.003423 1.950366 8.616110
v 2.967326 1.950366 8.556420
v 2.967326 -0.049634 8.556420
v 4.003423 -0.049634 8.556420
v 4.003423 1.950366 8.556420
vt 0.000000 0.000000
vt 0.000000 1.000000
vt 1.000000 1.000000
vt 1.000000 0.000000
vt 0.000000 0.000000
vt 1.000000 0.000000
vt 1.000000 1.000000
vt 0.000000 1.000000
vn 0.0000 0.0000 -1.0000
vn 0.0000 0.0000 1.0000
vn -1.0000 0.0000 0.0000
vn 1.0000 0.0000 0.0000
vn 0.0000 -1.0000 0.0000
vn 0.0000 1.0000 0.0000
usemtl Roof.007
s off
f 1/1/1 3/2/1 4/3/1 2/4/1
f 6/5/2 7/6/2 8/7/2 5/8/2
f 2/4/3 4/3/3 8/7/3 7/6/3
f 3/2/4 1/1/4 6/5/4 5/8/4
f 4/3/5 3/2/5 5/8/5 8/7/5
f 1/1/6 2/4/6 7/6/6 6/5/6
